<!--?xml version="1.0" standalone="no"?-->
              <svg id="sw-js-blob-svg" viewBox="0 0 100 100" xmlns="http://www.w3.org/2000/svg" version="1.1">
                    <defs> 
                        <linearGradient id="sw-gradient" x1="0" x2="1" y1="1" y2="0">
                            <stop id="stop1" stop-color="rgba(93, 56, 145, 1)" offset="0%"></stop>
                            <stop id="stop2" stop-color="rgba(93, 56, 145, 1)" offset="100%"></stop>
                        </linearGradient>
                    </defs>
                <path fill="url(#sw-gradient)" d="M15.7,-25.7C20.1,-21.5,23.5,-16.9,28.4,-11.4C33.4,-5.9,40.1,0.4,40.4,6.6C40.7,12.7,34.7,18.8,29,25C23.4,31.3,18.2,37.8,12.2,37.9C6.2,38,-0.6,31.6,-9,29.6C-17.5,27.7,-27.5,30.1,-32,26.7C-36.4,23.4,-35.3,14.1,-32.2,7.2C-29.1,0.3,-24.2,-4.2,-20.4,-8.1C-16.7,-12,-14.3,-15.2,-11.1,-20C-7.9,-24.7,-3.9,-31.1,0.8,-32.3C5.6,-33.6,11.2,-29.9,15.7,-25.7Z" width="100%" height="100%" transform="translate(50 50)" style="transition: all 0.3s ease 0s;" stroke-width="0" stroke="url(#sw-gradient)"></path>
              </svg>