<!--?xml version="1.0" standalone="no"?-->
              <svg id="sw-js-blob-svg" viewBox="0 0 100 100" xmlns="http://www.w3.org/2000/svg" version="1.1">
                    <defs> 
                        <linearGradient id="sw-gradient" x1="0" x2="1" y1="1" y2="0">
                            <stop id="stop1" stop-color="rgba(249, 148, 23, 1)" offset="0%"></stop>
                            <stop id="stop2" stop-color="rgba(249, 148, 23, 1)" offset="100%"></stop>
                        </linearGradient>
                    </defs>
                <path fill="url(#sw-gradient)" d="M21.3,-34.8C25.5,-30.5,25.4,-21,28.4,-13.3C31.3,-5.6,37.5,0.3,35.8,4.4C34.1,8.5,24.5,10.8,19,15.5C13.4,20.2,11.8,27.4,7.6,30.9C3.4,34.4,-3.3,34.3,-7.5,30.7C-11.8,27.2,-13.6,20.2,-14.8,15C-16,9.7,-16.7,6.1,-19.9,1.3C-23.1,-3.6,-28.7,-9.6,-28.4,-14.1C-28.1,-18.6,-21.9,-21.5,-16.2,-25.1C-10.4,-28.6,-5.2,-32.9,1.7,-35.5C8.6,-38.1,17.1,-39,21.3,-34.8Z" width="100%" height="100%" transform="translate(50 50)" style="transition: all 0.3s ease 0s;" stroke-width="0" stroke="url(#sw-gradient)"></path>
              </svg>