<?xml version="1.0" standalone="no"?>
<svg xmlns:xlink="http://www.w3.org/1999/xlink" id="wave" style="transform:rotate(0deg); transition: 0.3s" viewBox="0 0 1440 490" version="1.1" xmlns="http://www.w3.org/2000/svg"><defs><linearGradient id="sw-gradient-0" x1="0" x2="0" y1="1" y2="0"><stop stop-color="rgba(77, 69, 93, 1)" offset="0%"/><stop stop-color="rgba(233, 100, 121, 1)" offset="100%"/></linearGradient></defs><path style="transform:translate(0, 0px); opacity:1" fill="url(#sw-gradient-0)" d="M0,49L40,98C80,147,160,245,240,294C320,343,400,343,480,334.8C560,327,640,310,720,253.2C800,196,880,98,960,65.3C1040,33,1120,65,1200,98C1280,131,1360,163,1440,155.2C1520,147,1600,98,1680,65.3C1760,33,1840,16,1920,8.2C2000,0,2080,0,2160,73.5C2240,147,2320,294,2400,318.5C2480,343,2560,245,2640,204.2C2720,163,2800,180,2880,179.7C2960,180,3040,163,3120,187.8C3200,212,3280,278,3360,285.8C3440,294,3520,245,3600,236.8C3680,229,3760,261,3840,253.2C3920,245,4000,196,4080,179.7C4160,163,4240,180,4320,204.2C4400,229,4480,261,4560,245C4640,229,4720,163,4800,155.2C4880,147,4960,196,5040,179.7C5120,163,5200,82,5280,114.3C5360,147,5440,294,5520,302.2C5600,310,5680,180,5720,114.3L5760,49L5760,490L5720,490C5680,490,5600,490,5520,490C5440,490,5360,490,5280,490C5200,490,5120,490,5040,490C4960,490,4880,490,4800,490C4720,490,4640,490,4560,490C4480,490,4400,490,4320,490C4240,490,4160,490,4080,490C4000,490,3920,490,3840,490C3760,490,3680,490,3600,490C3520,490,3440,490,3360,490C3280,490,3200,490,3120,490C3040,490,2960,490,2880,490C2800,490,2720,490,2640,490C2560,490,2480,490,2400,490C2320,490,2240,490,2160,490C2080,490,2000,490,1920,490C1840,490,1760,490,1680,490C1600,490,1520,490,1440,490C1360,490,1280,490,1200,490C1120,490,1040,490,960,490C880,490,800,490,720,490C640,490,560,490,480,490C400,490,320,490,240,490C160,490,80,490,40,490L0,490Z"/></svg>